# xmcd
#
# Track frame offsets:
#	150
#	20015
#	41035
#	55962
#	71107
#	98270
#	121157
#	143335
#	161375
#	182507
#	200927
#	223825
#	244685
#	267485
#	287410
#	312325
#
# Disc length: 4438 seconds
#
# Revision: 1
# Processed by: cddbd v1.5.1PL0 Copyright (c) Steve Scherf et al.
# Submitted via: CDex 1.50Beta5
#
DISCID=e8115410
DTITLE=さまざまなアーティスト - Ballad  3
DYEAR=1900
DGENRE=Pop
TTITLE0=石嶺聡子/私がいる
TTITLE1=辛島美登里/愛すること
TTITLE2=尾崎亜美/For you
TTITLE3=ハイ・ファイ・セット/よりそって二人
TTITLE4=高野寛/夢の中で会えるでしょう
TTITLE5=オリジナル ラブ/接吻kiss
TTITLE6=熊谷幸子/風と雲と私
TTITLE7=薬師丸ひろ子/元気を出して
TTITLE8=石嶺聡子/花
TTITLE9=山本達彦/Lady
TTITLE10=オフコース/I love you
TTITLE11=高野寛/ベステン ダンク
TTITLE12=オリジナル ラブ/朝日のあたる道
TTITLE13=尾崎亜美/奇跡
TTITLE14=辛島美登里/あなたの愛になりたい
TTITLE15=椎名恵/LOVE IS ALL
EXTD=
EXTT0=
EXTT1=
EXTT2=
EXTT3=
EXTT4=
EXTT5=
EXTT6=
EXTT7=
EXTT8=
EXTT9=
EXTT10=
EXTT11=
EXTT12=
EXTT13=
EXTT14=
EXTT15=
PLAYORDER=
